<?xml version="1.0" encoding="UTF-8" standalone="no"?>
<!-- Created with Inkscape (http://www.inkscape.org/) -->

<svg
   xmlns:dc="http://purl.org/dc/elements/1.1/"
   xmlns:cc="http://creativecommons.org/ns#"
   xmlns:rdf="http://www.w3.org/1999/02/22-rdf-syntax-ns#"
   xmlns:svg="http://www.w3.org/2000/svg"
   xmlns="http://www.w3.org/2000/svg"
   xmlns:xlink="http://www.w3.org/1999/xlink"
   xmlns:sodipodi="http://sodipodi.sourceforge.net/DTD/sodipodi-0.dtd"
   xmlns:inkscape="http://www.inkscape.org/namespaces/inkscape"
   id="svg2"
   sodipodi:version="0.32"
   inkscape:version="0.47pre4 r22446"
   width="48"
   height="48"
   version="1.0"
   sodipodi:docname="icon_result.svg"
   inkscape:output_extension="org.inkscape.output.svg.inkscape"
   inkscape:export-filename="/home/timo/Bureaublad/Pigeon Planner/images/icon_result.png"
   inkscape:export-xdpi="60"
   inkscape:export-ydpi="60">
  <metadata
     id="metadata7">
    <rdf:RDF>
      <cc:Work
         rdf:about="">
        <dc:format>image/svg+xml</dc:format>
        <dc:type
           rdf:resource="http://purl.org/dc/dcmitype/StillImage" />
        <dc:title></dc:title>
      </cc:Work>
    </rdf:RDF>
  </metadata>
  <defs
     id="defs5">
    <linearGradient
       id="linearGradient3187">
      <stop
         style="stop-color:#ffebff;stop-opacity:1;"
         offset="0"
         id="stop3189" />
      <stop
         style="stop-color:#ffd700;stop-opacity:0;"
         offset="1"
         id="stop3191" />
    </linearGradient>
    <linearGradient
       id="linearGradient3177">
      <stop
         style="stop-color:#ffffff;stop-opacity:1;"
         offset="0"
         id="stop3179" />
      <stop
         style="stop-color:#ffd700;stop-opacity:0;"
         offset="1"
         id="stop3181" />
    </linearGradient>
    <linearGradient
       id="linearGradient3167">
      <stop
         style="stop-color:#fbfbfb;stop-opacity:1;"
         offset="0"
         id="stop3169" />
      <stop
         style="stop-color:#ffd700;stop-opacity:0;"
         offset="1"
         id="stop3171" />
    </linearGradient>
    <linearGradient
       id="linearGradient3157">
      <stop
         style="stop-color:#ffedff;stop-opacity:1;"
         offset="0"
         id="stop3159" />
      <stop
         style="stop-color:#ffd700;stop-opacity:0;"
         offset="1"
         id="stop3161" />
    </linearGradient>
    <inkscape:perspective
       sodipodi:type="inkscape:persp3d"
       inkscape:vp_x="0 : 526.18109 : 1"
       inkscape:vp_y="0 : 1000 : 0"
       inkscape:vp_z="744.09448 : 526.18109 : 1"
       inkscape:persp3d-origin="372.04724 : 350.78739 : 1"
       id="perspective9" />
    <linearGradient
       inkscape:collect="always"
       xlink:href="#linearGradient3157"
       id="linearGradient3163"
       x1="6.21875"
       y1="7.25"
       x2="42.03125"
       y2="7.25"
       gradientUnits="userSpaceOnUse"
       gradientTransform="matrix(1,0,0,0.8489616,2,2.0572687)" />
    <linearGradient
       inkscape:collect="always"
       xlink:href="#linearGradient3167"
       id="linearGradient3173"
       x1="6.09375"
       y1="22.625"
       x2="42.09375"
       y2="22.625"
       gradientUnits="userSpaceOnUse"
       gradientTransform="matrix(0.9412628,0,0,0.8825257,1.1577644,2.9397945)" />
    <linearGradient
       inkscape:collect="always"
       xlink:href="#linearGradient3177"
       id="linearGradient3183"
       x1="20"
       y1="39.5"
       x2="28"
       y2="39.5"
       gradientUnits="userSpaceOnUse" />
    <linearGradient
       inkscape:collect="always"
       xlink:href="#linearGradient3187"
       id="linearGradient3193"
       x1="11"
       y1="41"
       x2="42"
       y2="41"
       gradientUnits="userSpaceOnUse" />
    <linearGradient
       inkscape:collect="always"
       xlink:href="#linearGradient3167"
       id="linearGradient3197"
       gradientUnits="userSpaceOnUse"
       gradientTransform="matrix(0.9412628,0,0,0.8825257,1.4669604,2.9397945)"
       x1="46.578102"
       y1="22.73045"
       x2="34.563183"
       y2="26.129784" />
  </defs>
  <sodipodi:namedview
     inkscape:window-height="1116"
     inkscape:window-width="1918"
     inkscape:pageshadow="2"
     inkscape:pageopacity="0.0"
     guidetolerance="10.0"
     gridtolerance="10.0"
     objecttolerance="10.0"
     borderopacity="1.0"
     bordercolor="#666666"
     pagecolor="#ffffff"
     id="base"
     showgrid="true"
     inkscape:zoom="18.916667"
     inkscape:cx="29.637497"
     inkscape:cy="22.614349"
     inkscape:window-x="0"
     inkscape:window-y="31"
     inkscape:current-layer="svg2"
     inkscape:window-maximized="0">
    <inkscape:grid
       type="xygrid"
       id="grid2382"
       visible="true"
       enabled="true"
       empspacing="4" />
  </sodipodi:namedview>
  <path
     sodipodi:type="arc"
     style="opacity:1;fill:#ffd700;fill-opacity:1;stroke:#554600;stroke-width:0.40000001000000002;stroke-linecap:round;stroke-linejoin:miter;stroke-miterlimit:4;stroke-dasharray:none;stroke-opacity:1"
     id="path3212"
     sodipodi:cx="26.5"
     sodipodi:cy="41"
     sodipodi:rx="15.5"
     sodipodi:ry="2"
     d="M 42,41 A 15.5,2 0 1 1 11,41 A 15.5,2 0 1 1 42,41 z"
     transform="matrix(1.0324765,0,0,0.9984671,-3.3541756,4.0628505)" />
  <path
     transform="matrix(1.0324765,0,0,0.9984671,-2.3606273,4.0659147)"
     d="M 42,41 A 15.5,2 0 1 1 11,41 A 15.5,2 0 1 1 42,41 z"
     sodipodi:ry="2"
     sodipodi:rx="15.5"
     sodipodi:cy="41"
     sodipodi:cx="26.5"
     id="path3185"
     style="opacity:0.63573884;fill:url(#linearGradient3193);fill-opacity:1;stroke:none;stroke-width:0.40000001;stroke-linecap:round;stroke-linejoin:miter;stroke-miterlimit:4;stroke-dasharray:none;stroke-opacity:1"
     sodipodi:type="arc" />
  <rect
     style="opacity:1;fill:#ffd700;fill-opacity:1;stroke:#554600;stroke-width:0.40000001000000002;stroke-linecap:round;stroke-linejoin:miter;stroke-miterlimit:4;stroke-dasharray:none;stroke-opacity:1"
     id="rect3214"
     width="8"
     height="11"
     x="20"
     y="34"
     rx="0.845815"
     ry="0.845815" />
  <rect
     ry="0.845815"
     rx="0.845815"
     y="34"
     x="20"
     height="11"
     width="8"
     id="rect3175"
     style="opacity:0.51546397;fill:url(#linearGradient3183);fill-opacity:1;stroke:none;stroke-width:0.40000001;stroke-linecap:round;stroke-linejoin:miter;stroke-miterlimit:4;stroke-dasharray:none;stroke-opacity:1" />
  <path
     style="opacity:1;fill:#ffd700;fill-opacity:1;stroke:#554600;stroke-width:0.45676794999999998;stroke-linecap:round;stroke-linejoin:miter;stroke-miterlimit:4;stroke-dasharray:none;stroke-opacity:1"
     d="M 42,8 C 41.948579,8.1685621 41.888368,8.3386597 41.71875,8.5 C 41.478933,8.7281135 41.142956,8.9465937 40.6875,9.15625 C 39.776588,9.575563 38.440895,9.932777 36.8125,10.25 C 35.184105,10.567223 33.246201,10.853798 31.09375,11.03125 C 28.941299,11.208702 26.576828,11.28125 24.09375,11.28125 C 21.610672,11.28125 19.246201,11.208702 17.09375,11.03125 C 14.941299,10.853798 13.003395,10.567223 11.375,10.25 C 9.7466048,9.932777 8.4109117,9.575563 7.5,9.15625 C 7.044544,8.9465937 6.708567,8.7281135 6.46875,8.5 C 6.299132,8.3386597 6.238921,8.1685621 6.1875,8 C 6.162948,8.5872103 6.09375,9.1533788 6.09375,9.75 C 6.09375,24.928913 14.15329,37.250002 24.09375,37.25 C 34.03421,37.25 42.09375,24.928913 42.09375,9.75 C 42.09375,9.1533788 42.024552,8.5872103 42,8 z"
     id="path3226" />
  <path
     style="opacity:1;fill:#ffd700;fill-opacity:1;stroke:#554600;stroke-width:0.45676794999999998;stroke-linecap:round;stroke-linejoin:miter;stroke-miterlimit:4;stroke-dasharray:none;stroke-opacity:1"
     d="M 42,8 C 41.943187,7.847215 41.904277,7.7092482 41.75,7.5625 C 41.510183,7.3343865 41.174206,7.1159063 40.71875,6.90625 C 39.807838,6.4869374 38.472145,6.0984729 36.84375,5.78125 C 35.215355,5.4640271 33.277451,5.208702 31.125,5.03125 C 28.972549,4.853798 26.608078,4.75 24.125,4.75 C 21.641922,4.75 19.277451,4.853798 17.125,5.03125 C 14.972549,5.208702 13.034645,5.4640271 11.40625,5.78125 C 9.7778548,6.0984729 8.4421617,6.4869374 7.53125,6.90625 C 7.075794,7.1159063 6.739817,7.3343865 6.5,7.5625 C 6.345723,7.7092482 6.306813,7.847215 6.25,8 C 6.241688,8.1566867 6.225332,8.3113347 6.21875,8.46875 C 6.270171,8.6373121 6.330382,8.8074097 6.5,8.96875 C 6.739817,9.1968635 7.075794,9.4153437 7.53125,9.625 C 8.4421617,10.044313 9.7778548,10.401527 11.40625,10.71875 C 13.034645,11.035973 14.972549,11.322548 17.125,11.5 C 19.277451,11.677452 21.641922,11.75 24.125,11.75 C 26.608078,11.75 28.972549,11.677452 31.125,11.5 C 33.277451,11.322548 35.215355,11.035973 36.84375,10.71875 C 38.472145,10.401527 39.807838,10.044313 40.71875,9.625 C 41.174206,9.4153437 41.510183,9.1968635 41.75,8.96875 C 41.919618,8.8074097 41.979829,8.6373121 42.03125,8.46875 C 42.024668,8.3113347 42.008312,8.1566867 42,8 z"
     id="path3224" />
  <path
     id="path3165"
     d="M 40.690804,10 C 40.642403,10.14876 40.585729,10.298877 40.426073,10.441262 C 40.200343,10.642579 39.8841,10.835393 39.455397,11.020421 C 38.597988,11.390475 37.34075,11.705725 35.808003,11.985682 C 34.275256,12.265641 32.451178,12.51855 30.425155,12.675156 C 28.399134,12.831763 26.173545,12.895788 23.836316,12.895788 C 21.499088,12.895788 19.273499,12.831763 17.247476,12.675156 C 15.221454,12.51855 13.397376,12.265641 11.86463,11.985682 C 10.331882,11.705725 9.0746431,11.390475 8.2172358,11.020421 C 7.7885319,10.835393 7.4722892,10.642579 7.2465583,10.441262 C 7.0869033,10.298877 7.0302289,10.14876 6.9818283,10 C 6.9587184,10.518227 6.8935849,11.017887 6.8935849,11.544419 C 6.8935849,24.940201 14.47973,35.813878 23.836316,35.813876 C 33.192902,35.813876 40.779047,24.940201 40.779047,11.544419 C 40.779047,11.017887 40.713914,10.518227 40.690804,10 z"
     style="opacity:0.63573884;fill:url(#linearGradient3173);fill-opacity:1;stroke:none;stroke-width:0.45676795;stroke-linecap:round;stroke-linejoin:miter;stroke-miterlimit:4;stroke-dasharray:none;stroke-opacity:1" />
  <text
     xml:space="preserve"
     style="font-size:17.14336205px;font-style:normal;font-weight:normal;fill:#000000;fill-opacity:1;stroke:none;stroke-width:1px;stroke-linecap:butt;stroke-linejoin:miter;stroke-opacity:1;font-family:Bitstream Vera Sans"
     x="12.286226"
     y="26.261082"
     id="text3228"
     transform="scale(0.9726327,1.0281374)"><tspan
       sodipodi:role="line"
       id="tspan3230"
       x="12.286226"
       y="26.261082">#1</tspan></text>
  <path
     id="path2385"
     d="M 44,8 C 43.943187,7.8702914 43.904277,7.7531629 43.75,7.6285793 C 43.510183,7.4349197 43.174206,7.2494383 42.71875,7.0714482 C 41.807838,6.7154679 40.472145,6.3856764 38.84375,6.1163664 C 37.215355,5.8470563 35.277451,5.6302952 33.125,5.4796452 C 30.972549,5.3289952 28.608078,5.2408747 26.125,5.2408747 C 23.641922,5.2408747 21.277451,5.3289952 19.125,5.4796452 C 16.972549,5.6302952 15.034645,5.8470563 13.40625,6.1163664 C 11.777855,6.3856764 10.442162,6.7154679 9.53125,7.0714482 C 9.075794,7.2494383 8.739817,7.4349197 8.5,7.6285793 C 8.345723,7.7531629 8.306813,7.8702914 8.25,8 C 8.241688,8.133021 8.225332,8.2643112 8.21875,8.3979507 C 8.270171,8.5410535 8.330382,8.6854599 8.5,8.8224315 C 8.739817,9.0160912 9.075794,9.2015725 9.53125,9.3795626 C 10.442162,9.7355433 11.777855,10.038804 13.40625,10.308114 C 15.034645,10.577424 16.972549,10.820715 19.125,10.971365 C 21.277451,11.122016 23.641922,11.183606 26.125,11.183606 C 28.608078,11.183606 30.972549,11.122016 33.125,10.971365 C 35.277451,10.820715 37.215355,10.577424 38.84375,10.308114 C 40.472145,10.038804 41.807838,9.7355433 42.71875,9.3795626 C 43.174206,9.2015725 43.510183,9.0160912 43.75,8.8224315 C 43.919618,8.6854599 43.979829,8.5410535 44.03125,8.3979507 C 44.024668,8.2643112 44.008312,8.133021 44,8 z"
     style="opacity:0.4467354;fill:url(#linearGradient3163);fill-opacity:1;stroke:none;stroke-width:0.45676795;stroke-linecap:round;stroke-linejoin:miter;stroke-miterlimit:4;stroke-dasharray:none;stroke-opacity:1" />
  <path
     style="opacity:0.63573884000000003;fill:url(#linearGradient3197);fill-opacity:1;stroke:none;stroke-width:0.45676794999999998;stroke-linecap:round;stroke-linejoin:miter;stroke-miterlimit:4;stroke-dasharray:none;stroke-opacity:1"
     d="M 41,10 C 40.951599,10.14876 40.894925,10.298877 40.735269,10.441262 C 40.509539,10.642579 40.193296,10.835393 39.764593,11.020421 C 38.907184,11.390475 37.649946,11.705725 36.117199,11.985682 C 34.584452,12.265641 32.760374,12.51855 30.734351,12.675156 C 28.70833,12.831763 26.482741,12.895788 24.145512,12.895788 C 21.808284,12.895788 19.582695,12.831763 17.556672,12.675156 C 15.53065,12.51855 13.706572,12.265641 12.173826,11.985682 C 10.641078,11.705725 9.3838391,11.390475 8.5264318,11.020421 C 8.0977279,10.835393 7.7814852,10.642579 7.5557543,10.441262 C 7.3960993,10.298877 7.3394249,10.14876 7.2910243,10 C 7.2679144,10.518227 7.2027809,11.017887 7.2027809,11.544419 C 7.2027809,24.940201 14.788926,35.813878 24.145512,35.813876 C 33.502098,35.813876 41.088243,24.940201 41.088243,11.544419 C 41.088243,11.017887 41.02311,10.518227 41,10 z"
     id="path3195" />
</svg>
